<svg width="87" height="35" viewBox="0 0 87 35" fill="none" xmlns="http://www.w3.org/2000/svg">
<g id="abb" clip-path="url(#clip0_368_546)">
<g id="Group" opacity="0.9">
<path id="Vector" fill-rule="evenodd" clip-rule="evenodd" d="M73.1714 33.8011V17.8564H63.8306V33.8011H73.1714ZM73.1714 16.5387H63.8306V0.593994H73.1714V16.5387ZM85.1812 17.8676C86.4099 19.6094 87.1776 21.7038 87.1776 23.8336C87.1709 26.4751 86.1149 29.0063 84.2394 30.8741C82.3652 32.7418 79.8254 33.7943 77.1742 33.8013H74.5062V17.8564L85.1812 17.8676ZM74.5062 16.5387L83.9884 16.5622C83.0784 15.7171 82.0172 15.0505 80.8589 14.5973C82.0092 13.9332 82.9669 12.9816 83.6364 11.8362C84.3046 10.6908 84.6631 9.39135 84.6737 8.06617C84.6737 3.98324 81.2732 0.593994 77.1742 0.593994H74.5062V16.5387ZM47.1556 33.8011H37.8372V17.8564H47.1556V33.8011ZM47.1556 16.5387H37.8372V0.593994H47.1556V16.5387ZM48.4892 33.8011V17.8564L59.1651 17.8681C60.3926 19.6098 61.1606 21.7043 61.1606 23.8341C61.1536 26.4754 60.0976 29.0063 58.2234 30.8741C56.3492 32.7418 53.8092 33.7943 51.1586 33.8016L48.4892 33.8011ZM48.4892 16.5387V0.593994H51.1586C55.2561 0.593994 58.6687 3.98267 58.6687 8.06617C58.6687 10.7611 57.1571 13.2555 54.8422 14.5973C56.0001 15.0505 57.0621 15.7171 57.9722 16.5622L48.4892 16.5387ZM18.1627 16.5387H8.21973L13.8175 0.594409H18.1632L18.1627 16.5387ZM29.4287 16.5387L23.8202 0.593994H19.4979V16.5382L29.4287 16.5387ZM35.4989 33.8011H27.1614L24.8349 27.1644H19.4979V17.8564H29.9022L35.4989 33.8011ZM2.14899 33.8011H10.4875L12.8258 27.1644H18.1641V17.8564H7.75935L2.14899 33.8011Z" fill="white"/>
</g>
</g>
<defs>
<clipPath id="clip0_368_546">
<rect width="86.6667" height="35" fill="white"/>
</clipPath>
</defs>
</svg>
