<svg width="196" height="35" viewBox="0 0 196 35" fill="none" xmlns="http://www.w3.org/2000/svg">
<g id="barclays" clip-path="url(#clip0_368_549)">
<g id="Group" opacity="0.9">
<path id="Vector" d="M50.2905 28.3997H41.9139C42.9979 27.4108 43.2955 23.8517 43.6877 17.4258L43.7859 15.9429C44.0817 12.3832 44.1802 9.51667 44.1802 7.53939C44.1802 5.8588 43.9832 4.7711 43.4895 4.37575H52.8509C55.1175 4.37575 59.552 4.47435 59.552 9.12102C59.552 12.2846 56.6947 14.1631 54.0337 14.8542C57.7782 15.1505 60.5377 17.0277 60.5377 20.885C60.6364 25.0373 56.6944 28.3988 50.2889 28.3988L50.2905 28.3997ZM49.993 16.7325H48.318L48.0224 20.2922C47.9239 21.8737 47.8254 23.1587 47.8254 24.7408C47.8254 24.9388 48.516 25.434 50.092 25.434C53.4427 25.434 55.6105 23.753 55.6105 20.9848C55.7087 17.9205 53.0484 16.7325 49.993 16.7325ZM50.6839 7.24295C50.1237 7.22944 49.5632 7.26242 49.0084 7.34155C48.7379 9.04312 48.5739 10.76 48.5175 12.4822C48.5175 12.4822 48.419 13.9652 48.419 13.8663H49.0102C52.065 13.8663 54.8249 12.7789 54.8249 10.0106C54.9229 8.42895 53.5415 7.24295 50.6839 7.24295ZM80.2494 28.5972C78.18 28.5972 77.9829 28.4983 76.4062 22.8642L75.8147 20.788C74.8294 21.2822 73.0557 21.481 70.2962 21.481H67.4387L66.946 22.5683C66.4534 23.656 65.271 25.9302 65.271 27.314C65.2629 27.679 65.2959 28.0437 65.3692 28.4013H59.6545C61.231 26.8197 63.3995 22.9637 66.2572 16.8343L67.9324 13.2747C69.4107 10.0122 71.0859 6.354 71.0859 5.86007C71.0827 5.38319 70.9822 4.912 70.7904 4.47562H76.0112C76.0112 4.47562 77.391 9.61654 78.5734 13.9667L79.5592 17.7235C81.3329 24.1497 82.5154 27.2143 83.8952 28.4022C82.5154 28.5015 80.8402 28.6003 80.2487 28.6003L80.2494 28.5972ZM72.7592 10.015L68.8172 18.4188H75.1242L72.7582 10.0109L72.7592 10.015ZM102.914 29.3882C101.14 29.3882 100.747 29.0918 100.155 28.3008L93.3549 19.0082C92.8622 18.2172 92.3694 17.723 91.581 17.723H91.4829L91.3842 19.6013C91.2859 22.0732 91.0889 24.0502 91.0889 25.5332C91.0889 27.1148 91.2859 28.1037 91.7795 28.499H85.2754C86.261 27.708 86.5565 24.9395 87.1477 17.5252L87.246 16.0421C87.5415 12.4825 87.6404 9.6159 87.6404 7.6386C87.6404 5.95805 87.4434 4.87064 86.9497 4.47499H95.7207C98.6769 4.47499 102.52 4.96924 102.52 9.6159C102.52 13.4716 99.9579 15.5478 96.8055 16.5364C97.2235 16.9765 97.6184 17.4387 97.9879 17.9207L102.817 24.3468C105.872 28.4003 106.069 28.5995 107.153 29.0923C105.748 29.2862 104.332 29.3845 102.914 29.3882ZM94.242 7.3425C93.6162 7.32609 92.9902 7.35917 92.3695 7.4414C92.1725 8.4299 92.0742 10.2094 91.8769 13.0766L91.7787 14.7575C92.1339 14.839 92.4984 14.8723 92.8625 14.856C95.8187 14.856 97.8884 12.9777 97.8884 10.3083C97.7899 8.4299 96.5087 7.3425 94.242 7.3425ZM115.627 28.8948C109.418 28.8948 105.871 23.754 105.871 18.1187C105.871 10.2097 110.207 3.98107 118.386 3.98107C120.948 3.98107 122.131 4.47532 124.299 4.47532L123.708 10.6041C122.525 8.43052 120.554 7.04449 117.993 7.04449C112.869 7.04449 110.799 12.5808 110.799 17.3263C110.799 22.4672 113.756 25.3343 117.5 25.3343C119.57 25.3343 121.442 24.8402 124.497 22.665C123.216 26.4218 120.358 28.8937 115.628 28.8937L115.627 28.8948ZM157.806 28.597C155.737 28.597 155.64 28.498 153.962 22.8638L153.371 20.7875C152.385 21.2818 150.612 21.4805 147.853 21.4805H144.897L144.404 22.568C143.616 24.15 142.729 26.0283 142.729 27.3135C142.729 27.61 142.827 28.0067 142.827 28.401H125.876C126.862 27.3135 127.157 23.7543 127.65 17.4272L127.748 15.9441C128.044 12.2862 128.142 9.51794 128.142 7.54062C128.142 5.95899 127.945 4.87127 127.551 4.37702H134.154C133.168 5.07004 132.873 8.92477 132.478 15.351L132.38 16.834C132.282 19.2067 131.887 21.678 131.887 23.953C131.887 25.0405 132.282 25.3373 133.464 25.3373C137.504 25.3373 138.392 25.2387 140.263 24.052C141.446 21.9757 142.629 19.4053 143.91 16.736L145.585 13.1764C147.161 9.81497 148.738 6.35462 148.738 5.76147C148.735 5.28469 148.634 4.81362 148.443 4.37734H153.666C153.666 4.37734 155.735 12.1876 156.228 13.8682L157.214 17.6253C158.987 24.0513 160.071 27.1162 161.649 28.304C160.374 28.4727 159.091 28.5717 157.805 28.6007L157.806 28.597ZM150.316 10.0153L146.472 18.4147H152.68L150.316 10.0109V10.0153ZM172.785 15.4482C172.292 16.437 171.503 17.6218 171.11 18.6118C170.715 20.3913 170.617 22.7642 170.617 25.3348C170.617 26.4222 170.815 27.9052 171.307 28.3995H164.802C165.985 27.312 166.379 20.6882 166.379 18.513C165.379 15.2419 164.093 12.0659 162.535 9.02212C161.353 6.84857 160.071 4.76952 159.185 4.37545C160.663 4.27654 162.535 4.17762 163.424 4.17762C165 4.17762 165.493 4.37544 166.479 6.55024C168.055 10.1098 169.14 12.7786 169.828 14.6569C171.405 12.0865 172.588 10.307 174.068 7.83549C174.363 7.24234 174.76 6.45134 174.76 5.75927C174.76 5.26504 174.662 4.57295 174.463 4.37514H180.868C179.49 4.67219 173.97 13.4713 172.788 15.4482H172.785ZM194.463 10.0109C193.893 9.05137 193.087 8.25592 192.118 7.70165C191.152 7.14737 190.058 6.85309 188.945 6.8473C186.877 6.8473 185.102 7.63829 185.102 9.8134C185.102 11.6918 187.368 12.8781 189.733 14.4598C192.295 16.0414 194.957 18.0193 194.957 21.4792C194.957 25.9283 190.62 28.7953 185.497 28.7953C183.205 28.7645 180.937 28.3295 178.795 27.5102L179.19 21.5783C180.372 23.951 182.54 25.8293 185.792 25.8293C188.255 25.8293 190.227 24.6427 190.227 22.4678C190.227 20.6883 188.748 19.502 186.877 18.4147C182.933 16.0421 180.47 14.1621 180.47 10.7033C180.47 5.5624 184.707 3.88184 189.24 3.88184C191.803 3.88184 193.478 4.37607 195.057 4.37607L194.463 10.0109Z" fill="white"/>
<path id="Vector_2" d="M32.3558 7.8372C32.0136 6.99451 31.4306 6.27218 30.6803 5.761C30.2558 5.4399 29.7926 5.17411 29.3016 4.97C28.885 4.84865 28.4543 4.78215 28.0205 4.77218H27.92C27.3286 4.77218 26.2448 4.8711 25.6535 5.761C25.504 5.95475 25.3998 6.17973 25.3486 6.41931C25.2976 6.6589 25.3008 6.90695 25.358 7.14511C25.4015 7.34923 25.497 7.53855 25.6351 7.69453C25.7733 7.85053 25.9495 7.96785 26.1465 8.03501C26.2293 8.10366 26.3346 8.13883 26.442 8.13361C26.425 8.23701 26.3916 8.33706 26.3433 8.43003C26.048 8.72645 25.555 9.22101 24.077 9.22101H23.9793C23.1908 9.12243 22.5996 8.9246 21.7128 8.0347C21.2201 7.44155 20.9245 6.35383 20.9245 4.67326C20.944 3.93746 20.844 3.20336 20.6286 2.49973C20.4815 2.09206 20.2043 1.74451 19.8403 1.51091C19.533 1.30657 19.2021 1.1406 18.855 1.01667C18.3022 0.907859 17.742 0.841726 17.1794 0.818848C16.5881 0.818848 16.1937 0.917754 15.9968 1.21449H15.4056C15.1101 1.21449 14.7148 1.31309 14.4203 1.31309C13.908 1.42106 13.4321 1.65975 13.0387 2.0061C12.7741 2.25146 12.5715 2.55636 12.4474 2.8957C12.4657 3.12851 12.4985 3.35998 12.5457 3.58871L12.6443 3.6873C12.9574 3.45901 13.3429 3.35356 13.7282 3.39086C14.419 3.39086 15.4034 3.6873 15.6006 4.18186C16.0932 4.97285 15.896 5.566 15.896 6.25806C15.6006 8.13645 14.9107 9.02635 13.4324 9.22385C13.1767 9.29966 12.9104 9.33308 12.644 9.32276C11.5601 9.32276 10.7716 9.02635 10.3772 8.33396V8.13613C10.4529 8.12898 10.5232 8.09383 10.5744 8.03755C10.7628 7.95623 10.9311 7.8344 11.0673 7.6806C11.2036 7.52683 11.3045 7.34488 11.3629 7.14765C11.4144 6.90911 11.4148 6.6623 11.3638 6.42363C11.3129 6.18496 11.2118 5.95993 11.0674 5.76351C10.7735 5.45655 10.4218 5.2111 10.0327 5.04136C9.64364 4.87165 9.22486 4.78101 8.80064 4.7747C8.33391 4.77741 7.86973 4.84396 7.42094 4.97251C6.23811 5.26895 5.15419 6.25775 4.36604 7.83908C3.72981 9.13493 3.36163 10.5466 3.2837 11.989C3.18489 13.3383 3.18489 14.6932 3.2837 16.0425C3.34613 17.5723 3.67989 19.079 4.26934 20.4913C4.74081 21.7342 5.33493 22.9267 6.04279 24.051C6.18466 24.3278 6.34946 24.5925 6.53546 24.842L6.63406 24.7433C6.75573 24.6305 6.85586 24.4965 6.92953 24.3477C7.41463 23.8705 7.84439 23.3398 8.21064 22.766C8.48198 22.361 8.71334 21.9307 8.90144 21.4808L9.00003 21.2833L9.19723 21.3818C9.39451 21.5968 9.50049 21.8807 9.49269 22.1728C9.45521 22.5812 9.35556 22.9813 9.19723 23.3595C8.93364 24.1437 8.60346 24.9037 8.21033 25.6312C8.30861 25.7302 8.30861 25.928 8.21033 25.928C8.01726 26.184 7.91346 26.4967 7.91486 26.8177H8.01251C8.31084 26.7742 8.58728 26.6353 8.80096 26.422C9.09643 26.2245 9.88487 25.5323 10.8705 24.1483C11.659 23.1593 12.1516 22.072 12.7429 20.8857L12.8415 20.688L13.0383 20.7868C13.1369 20.8855 13.2355 20.8855 13.3338 20.9843C13.4213 21.2383 13.4549 21.5077 13.4324 21.7753C13.3338 22.5663 12.8412 23.654 12.5454 24.445C11.9541 25.8292 10.8702 27.3115 10.0818 28.3995C10.0604 28.4695 10.0224 28.533 9.97086 28.5847C9.91934 28.6363 9.85596 28.6747 9.78628 28.696C9.89844 28.8182 10.032 28.9187 10.1803 28.9923L10.4761 29.2888C11.5133 30.1587 12.6358 30.9205 13.8265 31.5628C15.1968 32.3767 16.6506 33.0397 18.1628 33.5402C19.5425 33.2437 21.5135 32.1557 22.4991 31.5628C23.69 30.9207 24.8125 30.1588 25.8498 29.2888L26.1453 28.9923C26.3421 28.8938 26.4406 28.696 26.5393 28.696C26.6081 28.576 26.6421 28.439 26.638 28.3007L26.5383 28.203C25.5606 26.9898 24.7333 25.6618 24.0748 24.2485C23.7793 23.4575 23.2863 22.37 23.1876 21.5792C23.1158 21.3127 23.1513 21.0285 23.2863 20.7882L23.4833 20.5902C23.5683 20.5258 23.6723 20.4912 23.779 20.4917L23.8771 20.6892C24.4208 21.8213 25.0466 22.9117 25.7496 23.9517C26.7351 25.3358 27.5235 26.0278 27.8191 26.2258C28.0211 26.4548 28.3036 26.5965 28.6076 26.6212H28.7063C28.8046 26.5223 28.7063 26.3247 28.4105 25.83C28.3731 25.791 28.345 25.7443 28.328 25.693C28.311 25.6417 28.3055 25.5873 28.3121 25.5337C27.9193 24.8055 27.5895 24.0445 27.3265 23.2595C27.1785 22.8783 27.0791 22.4797 27.031 22.0732C27.023 21.7812 27.129 21.4973 27.3265 21.2823L27.5236 21.1833L27.622 21.3812C27.8416 21.866 28.1056 22.3293 28.4105 22.7653C28.6076 23.0618 29.396 23.952 29.5933 24.2485C29.7905 24.4463 29.8886 24.5448 29.8886 24.6438L29.987 24.7427C30.147 24.5293 30.2795 24.2965 30.3813 24.0497L30.4796 23.951C31.135 22.8128 31.6953 21.6223 32.1551 20.3915C32.6478 19.2052 32.9435 17.9198 33.1408 15.9426C33.2891 14.5957 33.2891 13.2364 33.1408 11.8894C33.2061 10.4947 32.937 9.10593 32.3558 7.8372Z" fill="white"/>
</g>
</g>
<defs>
<clipPath id="clip0_368_549">
<rect width="195" height="35" fill="white" transform="translate(0.666626)"/>
</clipPath>
</defs>
</svg>
