<svg width="99" height="68" viewBox="0 0 99 68" fill="none" xmlns="http://www.w3.org/2000/svg">
<g id="OBJECTS" clip-path="url(#clip0_329_330)">
<path id="Vector" d="M12.01 33.88C15.34 34.88 16.86 36.99 16.86 41.98V53.57C16.86 56.97 18.6 58.92 22.15 58.92H23.42V67.75H19.22C10.17 67.75 5.53996 63.12 5.53996 54.8V41.69C5.53996 39.38 4.30997 38.29 2.35997 38.29H-0.0300293V29.46H2.41997C4.36997 29.46 5.59996 28.37 5.59996 26.06V12.96C5.59996 4.62996 10.23 -0.0400391 19.28 -0.0400391H23.42V8.78998H22.12C18.57 8.78998 16.83 10.79 16.83 14.15V25.73C16.86 30.76 15.34 32.86 12.01 33.88Z" fill="#C0FF00"/>
<path id="Vector_2" d="M22.66 47.2001C22.66 45.3436 23.3975 43.5631 24.7103 42.2503C26.0231 40.9376 27.8035 40.2001 29.66 40.2001C31.5166 40.2001 33.297 40.9376 34.6098 42.2503C35.9226 43.5631 36.66 45.3436 36.66 47.2001C36.66 49.0566 35.9226 50.8371 34.6098 52.1498C33.297 53.4626 31.5166 54.2001 29.66 54.2001C27.8035 54.2001 26.0231 53.4626 24.7103 52.1498C23.3975 50.8371 22.66 49.0566 22.66 47.2001ZM41.98 47.2001C41.98 45.3369 42.7202 43.5501 44.0376 42.2326C45.3551 40.9152 47.1419 40.175 49.005 40.175C50.8682 40.175 52.655 40.9152 53.9725 42.2326C55.2899 43.5501 56.03 45.3369 56.03 47.2001C56.03 49.0632 55.2899 50.85 53.9725 52.1675C52.655 53.4849 50.8682 54.2251 49.005 54.2251C47.1419 54.2251 45.3551 53.4849 44.0376 52.1675C42.7202 50.85 41.98 49.0632 41.98 47.2001ZM61.38 47.2001C61.38 45.3369 62.1202 43.5501 63.4376 42.2326C64.7551 40.9152 66.5419 40.175 68.405 40.175C70.2682 40.175 72.055 40.9152 73.3725 42.2326C74.6899 43.5501 75.4301 45.3369 75.4301 47.2001C75.4301 49.0632 74.6899 50.85 73.3725 52.1675C72.055 53.4849 70.2682 54.2251 68.405 54.2251C66.5419 54.2251 64.7551 53.4849 63.4376 52.1675C62.1202 50.85 61.38 49.0632 61.38 47.2001Z" fill="#C0FF00"/>
<path id="Vector_3" d="M98.1599 29.46V38.29H95.77C93.77 38.29 92.59 39.38 92.59 41.69V54.8C92.59 63.12 87.95 67.75 78.9 67.75H74.71V58.92H76.0099C79.5599 58.92 81.2899 56.97 81.2899 53.57V41.98C81.2899 36.98 82.81 34.89 86.14 33.88C82.81 32.88 81.2899 30.76 81.2899 25.77V14.19C81.2899 10.78 79.5599 8.82999 76.0099 8.82999H74.71V0H78.9C87.9 0 92.59 4.63 92.59 13V26.06C92.59 28.37 93.82 29.46 95.77 29.46H98.1599Z" fill="#C0FF00"/>
</g>
<defs>
<clipPath id="clip0_329_330">
<rect width="98.16" height="67.75" fill="white"/>
</clipPath>
</defs>
</svg>
