<svg width="40" height="40" viewBox="0 0 40 40" fill="none" xmlns="http://www.w3.org/2000/svg">
<g id="developer_mode">
<path id="Vector" d="M11.6666 8.33341H28.3333V11.6667H31.6666V5.00008C31.6666 3.16675 30.1666 1.68341 28.3333 1.68341L11.6666 1.66675C9.83329 1.66675 8.33329 3.16675 8.33329 5.00008V11.6667H11.6666V8.33341ZM25.6833 27.6501L33.3333 20.0001L25.6833 12.3501L23.3333 14.7167L28.6166 20.0001L23.3333 25.2834L25.6833 27.6501ZM16.6666 25.2834L11.3833 20.0001L16.6666 14.7167L14.3166 12.3501L6.66663 20.0001L14.3166 27.6501L16.6666 25.2834ZM28.3333 31.6667H11.6666V28.3334H8.33329V35.0001C8.33329 36.8334 9.83329 38.3334 11.6666 38.3334H28.3333C30.1666 38.3334 31.6666 36.8334 31.6666 35.0001V28.3334H28.3333V31.6667Z" fill="#C0FF00"/>
</g>
</svg>
