<svg width="92" height="118" viewBox="0 0 92 118" fill="none" xmlns="http://www.w3.org/2000/svg">
<g opacity="0.08">
<rect x="56.594" y="8.54272" width="3.05551" height="3.05551" transform="rotate(15 56.594 8.54272)" fill="#CDFF33"/>
<rect x="42.1495" y="4.67236" width="3.05551" height="3.05551" transform="rotate(15 42.1495 4.67236)" fill="#CDFF33"/>
<rect x="27.3723" y="0.712646" width="3.05551" height="3.05551" transform="rotate(15 27.3723 0.712646)" fill="#CDFF33"/>
<rect x="73.4504" y="12.532" width="3.05551" height="3.05551" transform="rotate(45 73.4504 12.532)" fill="#CDFF33"/>
<rect x="89.7797" y="16.9072" width="3.05551" height="3.05551" transform="rotate(75 89.7797 16.9072)" fill="#CDFF33"/>
<rect x="52.9258" y="22.2332" width="3.05551" height="3.05551" transform="rotate(15 52.9258 22.2332)" fill="#CDFF33"/>
<rect x="38.4812" y="18.3625" width="3.05551" height="3.05551" transform="rotate(15 38.4812 18.3625)" fill="#CDFF33"/>
<rect x="23.7041" y="14.4031" width="3.05551" height="3.05551" transform="rotate(15 23.7041 14.4031)" fill="#CDFF33"/>
<rect x="69.7821" y="26.2227" width="3.05551" height="3.05551" transform="rotate(45 69.7821 26.2227)" fill="#CDFF33"/>
<rect x="86.1112" y="30.5981" width="3.05551" height="3.05551" transform="rotate(75 86.1112 30.5981)" fill="#CDFF33"/>
<rect x="49.2572" y="35.9241" width="3.05551" height="3.05551" transform="rotate(15 49.2572 35.9241)" fill="#CDFF33"/>
<rect x="34.8127" y="32.0537" width="3.05551" height="3.05551" transform="rotate(15 34.8127 32.0537)" fill="#CDFF33"/>
<rect x="20.0355" y="28.0942" width="3.05551" height="3.05551" transform="rotate(15 20.0355 28.0942)" fill="#CDFF33"/>
<rect x="66.0657" y="39.9006" width="3.05551" height="3.05551" transform="rotate(45 66.0657 39.9006)" fill="#CDFF33"/>
<rect x="82.4429" y="44.2888" width="3.05551" height="3.05551" transform="rotate(75 82.4429 44.2888)" fill="#CDFF33"/>
<rect x="45.5887" y="49.615" width="3.05551" height="3.05551" transform="rotate(15 45.5887 49.615)" fill="#CDFF33"/>
<rect x="31.1443" y="45.7446" width="3.05551" height="3.05551" transform="rotate(15 31.1443 45.7446)" fill="#CDFF33"/>
<rect x="16.3671" y="41.7852" width="3.05551" height="3.05551" transform="rotate(15 16.3671 41.7852)" fill="#CDFF33"/>
<rect x="62.4452" y="53.6042" width="3.05551" height="3.05551" transform="rotate(45 62.4452 53.6042)" fill="#CDFF33"/>
<rect x="78.7744" y="57.9797" width="3.05551" height="3.05551" transform="rotate(75 78.7744 57.9797)" fill="#CDFF33"/>
<rect x="41.9202" y="63.3059" width="3.05551" height="3.05551" transform="rotate(15 41.9202 63.3059)" fill="#CDFF33"/>
<rect x="27.4757" y="59.4355" width="3.05551" height="3.05551" transform="rotate(15 27.4757 59.4355)" fill="#CDFF33"/>
<rect x="12.6985" y="55.4758" width="3.05551" height="3.05551" transform="rotate(15 12.6985 55.4758)" fill="#CDFF33"/>
<rect x="58.7766" y="67.2954" width="3.05551" height="3.05551" transform="rotate(45 58.7766 67.2954)" fill="#CDFF33"/>
<rect x="75.1057" y="71.6709" width="3.05551" height="3.05551" transform="rotate(75 75.1057 71.6709)" fill="#CDFF33"/>
<rect x="38.2518" y="76.9966" width="3.05551" height="3.05551" transform="rotate(15 38.2518 76.9966)" fill="#CDFF33"/>
<rect x="23.8073" y="73.1262" width="3.05551" height="3.05551" transform="rotate(15 23.8073 73.1262)" fill="#CDFF33"/>
<rect x="9.03015" y="69.1667" width="3.05551" height="3.05551" transform="rotate(15 9.03015 69.1667)" fill="#CDFF33"/>
<rect x="55.0602" y="80.9734" width="3.05551" height="3.05551" transform="rotate(45 55.0602 80.9734)" fill="#CDFF33"/>
<rect x="71.4374" y="85.3616" width="3.05551" height="3.05551" transform="rotate(75 71.4374 85.3616)" fill="#CDFF33"/>
<rect x="34.5831" y="90.6882" width="3.05551" height="3.05551" transform="rotate(15 34.5831 90.6882)" fill="#CDFF33"/>
<rect x="20.1387" y="86.8179" width="3.05551" height="3.05551" transform="rotate(15 20.1387 86.8179)" fill="#CDFF33"/>
<rect x="5.36145" y="82.8582" width="3.05551" height="3.05551" transform="rotate(15 5.36145 82.8582)" fill="#CDFF33"/>
<rect x="51.4396" y="94.6775" width="3.05551" height="3.05551" transform="rotate(45 51.4396 94.6775)" fill="#CDFF33"/>
<rect x="67.7688" y="99.0527" width="3.05551" height="3.05551" transform="rotate(75 67.7688 99.0527)" fill="#CDFF33"/>
<rect x="30.9149" y="104.379" width="3.05551" height="3.05551" transform="rotate(15 30.9149 104.379)" fill="#CDFF33"/>
<rect x="16.4703" y="100.508" width="3.05551" height="3.05551" transform="rotate(15 16.4703 100.508)" fill="#CDFF33"/>
<rect x="1.69324" y="96.5488" width="3.05551" height="3.05551" transform="rotate(15 1.69324 96.5488)" fill="#CDFF33"/>
<rect x="47.7712" y="108.368" width="3.05551" height="3.05551" transform="rotate(45 47.7712 108.368)" fill="#CDFF33"/>
<rect x="64.1003" y="112.744" width="3.05551" height="3.05551" transform="rotate(75 64.1003 112.744)" fill="#CDFF33"/>
</g>
</svg>
