<svg width="161" height="29" viewBox="0 0 161 29" fill="none" xmlns="http://www.w3.org/2000/svg">
<g id="Group" clip-path="url(#clip0_368_536)">
<g id="Clip path group">
<mask id="mask0_368_536" style="mask-type:luminance" maskUnits="userSpaceOnUse" x="1" y="0" width="161" height="29">
<g id="clip0_1875_74205">
<path id="Vector" d="M161.16 0.493652H1.7644V28.0086H161.16V0.493652Z" fill="white"/>
</g>
</mask>
<g mask="url(#mask0_368_536)">
<g id="Group_2">
<path id="Vector_2" opacity="0.9" fill-rule="evenodd" clip-rule="evenodd" d="M12.4387 0.740869C8.77465 1.55886 5.25337 4.55047 3.52999 8.30895C2.77119 9.96409 2.60349 11.0155 2.59715 14.1609C2.5904 17.5082 2.73035 18.3041 3.69929 20.4249C5.05356 23.3885 8.06302 26.4031 10.5912 27.3287C12.9976 28.2099 17.1977 28.1944 19.6652 27.2952C22.4736 26.2715 26.1788 22.1895 27.0875 19.1179C27.4594 17.8611 27.7639 15.8958 27.7639 14.751V12.6698H20.6088H13.4539L13.5717 15.3325L13.6898 17.9953L17.1878 18.2082L20.6856 18.4213L19.5664 19.5656C15.2932 23.9354 8.76038 20.6477 8.74056 14.1174C8.72945 10.3846 11.1288 7.59449 14.6639 7.22938C16.4277 7.04745 16.9443 7.19188 18.6841 8.35411C20.4831 9.55595 20.9912 9.6876 23.8255 9.6876C25.5557 9.6876 26.971 9.58407 26.971 9.45754C26.971 8.7043 25.2397 5.82431 23.9373 4.4103C21.1431 1.37694 16.3866 -0.140595 12.4387 0.740869ZM58.877 0.758337C55.1107 1.31048 51.409 4.19474 49.4895 8.07249C48.7219 9.62326 48.5839 10.5473 48.5812 14.1609C48.5768 19.209 49.3177 21.2786 52.2357 24.37C54.8209 27.109 57.5722 28.1421 61.6605 27.9091C68.5117 27.5185 73.2297 22.4745 73.6547 15.0867C74.1646 6.22222 67.2616 -0.471197 58.877 0.758337ZM124.788 0.779213C120.339 1.53031 116.126 5.37911 114.802 9.90104C113.261 15.1681 114.758 21.0661 118.574 24.7526C120.958 27.0565 123.383 28.007 126.877 28.007C130.386 28.007 132.796 27.0553 135.222 24.7121C138.016 22.0119 139.251 19.2452 139.478 15.1719C139.742 10.4459 138.904 8.05204 135.832 4.75028C132.634 1.31346 129.116 0.0489904 124.788 0.779213ZM29.3497 14.374V27.581H32.3088H35.2679L35.3813 23.4271L35.4947 19.2734L37.823 23.4271L40.1514 27.581H43.9177C46.8672 27.581 47.602 27.4656 47.3066 27.0484C45.4063 24.3658 42.0362 19.0612 42.0362 18.7536C42.0362 18.5406 42.6541 18.0493 43.4095 17.6626C44.1648 17.2753 45.2795 16.1513 45.8872 15.1652C46.8689 13.5709 46.9918 12.9843 46.9918 9.90061C46.9918 6.8485 46.8634 6.22179 45.9278 4.70214C44.0948 1.72628 42.4246 1.1669 35.3694 1.1669H29.3497V14.374ZM75.4067 11.2852C75.5296 20.7529 75.5941 21.5164 76.4117 23.1605C78.2219 26.8005 80.9332 28.24 85.3406 27.901C88.9054 27.627 90.9304 26.2157 92.4846 22.9218L93.5748 20.6115V10.8894V1.1669H90.6014H87.6281V9.83713C87.6281 18.7987 87.3474 20.8659 86.0267 21.6255C84.8609 22.2961 83.3285 22.1086 82.4741 21.1905C81.7285 20.3892 81.6813 19.7705 81.6813 10.7527V1.1669H78.4784H75.2751L75.4067 11.2852ZM95.5572 14.374V27.581H98.5304H101.504V23.3208V19.0603L103.783 19.0578C108.663 19.0527 111.723 16.9362 112.846 12.7891C113.861 9.03405 113.115 5.61555 110.757 3.21784C108.997 1.42849 107.814 1.1669 101.478 1.1669H95.5572V14.374ZM140.753 14.374V27.581H143.925H147.096V20.2647V12.9488L151.598 20.1583L156.1 27.3681L158.932 27.4933L161.765 27.6186V14.3927V1.1669H158.602H155.441L155.332 8.26464L155.223 15.3624L150.862 8.27401L146.502 1.18565L143.627 1.17628L140.753 1.1669V14.374ZM39.8952 7.4573C40.4908 7.88461 41.2432 9.48139 41.2432 10.3181C41.2432 10.6956 40.8052 11.4748 40.2699 12.05C39.494 12.8841 38.8918 13.0959 37.2966 13.0959H35.2965V10.1136V7.13139L37.3779 7.13778C38.5228 7.1416 39.6554 7.28518 39.8952 7.4573ZM64.5641 8.28253C65.1477 8.74691 66.042 9.78047 66.5519 10.5789C67.865 12.6362 67.6525 16.5871 66.1114 18.7583C63.9868 21.752 60.0017 22.3693 57.2678 20.1284C53.1759 16.7747 53.8388 10.0344 58.4889 7.71163C60.0762 6.91879 63.2221 7.21446 64.5641 8.28253ZM106.173 7.79473C106.827 8.28636 107.054 8.88537 107.054 10.1136C107.054 12.2315 105.994 13.0959 103.398 13.0959H101.504V10.1136V7.13139H103.398C104.47 7.13139 105.674 7.41895 106.173 7.79473ZM129.85 7.98346C134.161 10.2261 134.464 17.2113 130.391 20.4525C127.719 22.5789 123.17 21.3311 121.434 17.9953C118.139 11.6665 123.856 4.8653 129.85 7.98346Z" fill="white"/>
</g>
</g>
</g>
</g>
<defs>
<clipPath id="clip0_368_536">
<rect width="160" height="29" fill="white" transform="translate(0.333252)"/>
</clipPath>
</defs>
</svg>
