<svg width="182" height="35" viewBox="0 0 182 35" fill="none" xmlns="http://www.w3.org/2000/svg">
<g id="honeywell" clip-path="url(#clip0_368_542)">
<g id="Group" opacity="0.9">
<path id="Vector" d="M93.5621 16.9824C93.5621 11.2966 89.1938 6.7351 83.1369 6.7101H83.0903V6.71355C77.0333 6.73855 72.7163 11.5857 72.7163 17.2714C72.7163 22.9706 77.0076 27.4234 83.0903 27.4234C87.7259 27.4234 92.7989 25.3704 93.4388 21.2234L89.8334 21.2143C89.0986 25.9436 80.4898 25.9121 80.1943 21.3321C80.1454 20.5686 80.1454 18.4611 80.1454 18.4611H93.6293C93.6333 17.9678 93.6109 17.4733 93.5621 16.9824ZM80.2201 15.8585L80.3433 12.3958C80.3433 12.3958 80.2943 9.21884 83.0878 9.19615C85.5418 9.21884 85.6139 12.4458 85.6139 12.4458L85.7116 15.8607H80.2201V15.8585ZM164.154 0.593994H171.66V26.4913H164.154V0.593994ZM174.357 0.593994H181.86V26.4913H174.357V0.593994ZM37.1586 6.7397C33.3461 6.7397 26.2589 9.33664 26.2589 17.1501C26.2589 25.7728 33.3461 27.4136 37.1586 27.4136C40.9711 27.4136 48.0654 25.2493 48.0559 17.1028C48.0464 9.14643 40.9711 6.7397 37.1586 6.7397ZM37.1586 24.9071C35.0978 24.9071 34.3208 21.8274 34.3208 17.1274C34.3208 12.4231 34.7301 9.28205 37.1586 9.28205C39.4381 9.28205 39.8941 12.4229 39.8941 17.1274C39.8959 21.8274 39.4381 24.9071 37.1586 24.9071ZM1.38208 0.593994H9.523V11.2515H15.8499V0.593994H24.4314V26.4913H15.8499V15.0721H9.57202V26.5376H1.38208V0.593994ZM50.4238 26.4913V7.42635H57.8299V9.2651C57.8299 9.2651 60.5258 7.09194 63.7634 7.09194C66.7851 7.09194 69.5994 9.1223 70.1739 11.4564C70.2874 11.8963 70.3408 12.3489 70.3319 12.8024V26.4933H63.0238V13.9249C63.0238 13.9249 63.2938 11.0806 61.0631 11.201C59.2999 11.296 58.1436 12.2025 57.8254 12.8009V26.4909L50.4238 26.4913Z" fill="white"/>
<path id="Vector_2" d="M91.7173 29.5736C91.7173 31.2937 92.7477 33.8022 96.0344 33.8022C98.7327 33.8022 101.256 32.2976 102.189 30.2422C102.942 28.5809 111.535 7.47434 111.535 7.47434L117.222 26.5394H123.354L126.494 15.1204L130.223 26.5394H136.055L141.059 7.47434H137.675L134.978 17.4611L131.497 7.47434H125.463L122.423 17.7467L119.332 7.47434H108.642L104.864 16.6477L101.284 7.47434H92.7025C92.7025 7.47434 100.638 25.1561 100.598 26.4917C100.498 29.6439 98.0463 31.0782 97.7047 31.1749H97.7303C98.0665 30.6506 98.252 30.0479 98.2675 29.4299C98.2668 28.5877 97.923 27.7804 97.3115 27.1851C96.6999 26.5899 95.8708 26.2559 95.0063 26.2561C93.2073 26.2561 91.7497 27.7019 91.722 29.5987L91.7173 29.5736ZM162.319 16.9829C162.319 11.2972 157.951 6.73799 151.897 6.71069H151.845V6.71299C145.791 6.73971 141.471 11.5874 141.471 17.2709C141.471 22.9701 145.764 27.4232 151.845 27.4232C156.483 27.4232 161.556 25.3701 162.196 21.2231L158.59 21.2139C157.854 25.9432 149.245 25.9117 148.953 21.3317C148.904 20.5681 148.904 18.4607 148.904 18.4607H162.388C162.392 17.9672 162.368 17.4741 162.319 16.9829ZM148.976 15.8591L149.099 12.3965C149.099 12.3965 149.05 9.21714 151.844 9.19674C154.296 9.21714 154.37 12.4465 154.37 12.4465L154.467 15.8613H148.976V15.8591Z" fill="white"/>
</g>
</g>
<defs>
<clipPath id="clip0_368_542">
<rect width="181.667" height="35" fill="white" transform="translate(0.333252)"/>
</clipPath>
</defs>
</svg>
