<svg width="87" height="83" viewBox="0 0 87 83" fill="none" xmlns="http://www.w3.org/2000/svg">
<g id="Layer" opacity="0.24" clip-path="url(#clip0_332_434)">
<path id="Vector" d="M41.79 82.2L0.529964 58.3799C-0.260036 57.9199 -0.160034 57.1199 0.749966 56.5899L41.3 33.1899C41.7686 32.9271 42.2926 32.7783 42.8294 32.7557C43.3663 32.7331 43.9009 32.8373 44.39 33.0599L85.65 56.8799C86.44 57.3399 86.34 58.1399 85.43 58.6599L44.88 82.07C44.4113 82.3328 43.8874 82.4816 43.3505 82.5042C42.8136 82.5268 42.279 82.4226 41.79 82.2Z" fill="#F2F2F2"/>
<path id="Vector_2" d="M43.34 59.41L3.90002 36.63L43.09 14.01L82.53 36.78L43.34 59.41Z" fill="#F2F2F2"/>
<path id="Vector_3" d="M43.33 56.92L8.19995 36.64L43.11 16.49L78.23 36.77L43.33 56.92Z" fill="#E6E6E6"/>
<path id="Vector_4" d="M43.34 79.42V59.41L82.53 36.78V56.79L43.34 79.42Z" fill="#BFBFBF"/>
<path id="Vector_5" d="M3.90002 36.6299V56.6499L43.34 79.4199V59.4099L3.90002 36.6299Z" fill="#E6E6E6"/>
<g id="Group">
<path id="Vector_6" d="M16.76 41.5801L13.99 39.9901L13.51 33.5701L12.53 19.8601L15.29 21.2001L16.07 32.0901L16.76 41.5801Z" fill="#4D4D4D"/>
<path id="Vector_7" d="M15.29 21.2L12.52 19.86L46.92 0L49.69 1.34L15.29 21.2Z" fill="#737373"/>
<path id="Vector_8" d="M52.66 42.3901L37.76 51.0001L35.41 52.3601L35.22 52.4801L35.2 52.2201L33.72 51.3701L30.94 49.7801L29.48 48.9301L26.71 47.3401L25.23 46.4901L22.45 44.8701L21.02 44.0501L18.22 42.4301L16.76 41.5801L16.07 32.0901L15.29 21.2001L49.69 1.33008L49.83 3.30008L50.05 6.10008L50.18 8.07008V8.09008L50.38 10.8801L50.52 12.8501L50.73 15.6701L50.87 17.6201L51.07 20.4301L51.13 21.1201L51.21 22.4001L51.42 25.2201L52.66 42.3901Z" fill="#1F2125"/>
</g>
<g id="Group_2">
<path id="Vector_9" d="M21.02 44.0501L18.22 42.4301L17.41 31.3201L16.76 22.3801L19.54 23.7201L19.97 29.8501L21.02 44.0501Z" fill="#4D4D4D"/>
<path id="Vector_10" d="M19.53 23.72L16.77 22.39L51.17 2.52002L53.93 3.86002L19.53 23.72Z" fill="#737373"/>
<path id="Vector_11" d="M56.92 44.9101L39.73 54.8401L37.97 53.8301L35.41 52.3601L35.22 52.4801L35.2 52.2201L33.72 51.3701L30.94 49.7801L29.48 48.9301L26.71 47.3401L25.23 46.4901L22.45 44.8701L21.02 44.0501L19.97 29.8501L19.54 23.7201L50.05 6.1001L53.92 3.8501L54.06 5.8401L54.28 8.6401L54.42 10.5901L54.61 13.4201L54.77 15.3701L54.97 18.1901L55.11 20.1401V20.1601L55.32 22.9501V22.9701L55.36 23.5701L56.92 44.9101Z" fill="#1F2125"/>
</g>
<g id="Group_3">
<path id="Vector_12" d="M25.23 46.4901L22.45 44.8701L21.31 29.0801L21.02 24.9001L23.77 26.2401L23.87 27.6001L25.23 46.4901Z" fill="#4D4D4D"/>
<path id="Vector_13" d="M23.78 26.25L21.01 24.91L55.41 5.05005L58.18 6.38005L23.78 26.25Z" fill="#737373"/>
<path id="Vector_14" d="M61.09 46.6701L43.33 56.9301L39.73 54.8401L37.97 53.8301L35.41 52.3601L35.22 52.4801L35.2 52.2201L33.72 51.3701L30.94 49.7801L29.48 48.9301L26.71 47.3401L25.23 46.4901L23.87 27.6001L23.77 26.2401L50.38 10.8801L58.18 6.39014L58.32 8.34014L58.53 11.1601L58.67 13.1101V13.1301L58.87 15.9201L59.01 17.8901L59.22 20.7101L59.6 26.0101L61.09 46.6701Z" fill="#1F2125"/>
</g>
<g id="Group_4">
<path id="Vector_15" d="M29.48 48.9302L26.71 47.3402L25.25 27.4302L28.03 28.7602L29.48 48.9302Z" fill="#4D4D4D"/>
<path id="Vector_16" d="M28.02 28.7701L25.26 27.4301L59.66 7.57007L62.42 8.91007L28.02 28.7701Z" fill="#737373"/>
<path id="Vector_17" d="M65.01 44.4002L61.09 46.6702L43.33 56.9302L39.73 54.8402L37.97 53.8302L35.41 52.3602L35.22 52.4802L35.2 52.2202L33.72 51.3702L30.94 49.7802L29.48 48.9302L28.03 28.7602L46.2 18.2902L50.73 15.6702L54.61 13.4202L58.53 11.1602L62.43 8.91016L62.57 10.8602L62.79 13.6802L62.92 15.6302L63.12 18.4602L63.85 28.4702L65.01 44.4002Z" fill="#1F2125"/>
</g>
<g id="Group_5">
<path id="Vector_18" d="M33.72 51.3702L30.94 49.7802L29.5 29.9502L32.26 31.2902L33.72 51.3702Z" fill="#4D4D4D"/>
<path id="Vector_19" d="M32.27 31.2901L29.5 29.9501L63.91 10.0901L66.67 11.4301L32.27 31.2901Z" fill="#737373"/>
<path id="Vector_20" d="M68.91 42.1602L65.01 44.4002L61.09 46.6702L43.33 56.9302L39.73 54.8402L37.97 53.8302L35.41 52.3602L35.22 52.4802L35.2 52.2202L33.72 51.3702L32.26 31.2902L50.5 20.7702L51.07 20.4302L54.97 18.1902L58.87 15.9202L62.79 13.6802L66.67 11.4302L66.8 13.3802L67.02 16.2002V16.2202L68.08 30.9102L68.91 42.1602Z" fill="#1F2125"/>
</g>
<g id="Group_6">
<path id="Vector_21" d="M37.97 53.8302L35.41 52.3602L35.22 52.4802L35.2 52.2202L33.76 32.4902L36.52 33.8302L37.76 51.0002L37.97 53.8302Z" fill="#4D4D4D"/>
<path id="Vector_22" d="M36.52 33.8201L33.75 32.4801L68.15 12.6201L70.92 13.9501L36.52 33.8201Z" fill="#737373"/>
<path id="Vector_23" d="M72.79 39.8902L68.91 42.1602L65.01 44.4002L61.09 46.6702L43.33 56.9302L39.73 54.8402L37.97 53.8302L37.76 51.0002L36.52 33.8302L51.42 25.2202L54.83 23.2502L55.32 22.9702L58.79 20.9602L59.22 20.7102L63.12 18.4602L67.02 16.2202L70.92 13.9602L72.32 33.3502L72.79 39.8902Z" fill="#1F2125"/>
<path id="Vector_24" d="M46.21 46.2401L51.21 46.7101V48.9201L42.85 48.1901L51.21 37.8401V40.0501L46.21 46.2401Z" fill="#F2F2F2"/>
<path id="Vector_25" d="M54.96 49.7601L53.35 50.6801C54.9433 44.8534 56.13 40.4834 56.91 37.5701L58.69 31.0101L60.29 30.0801L54.96 49.7601Z" fill="#F2F2F2"/>
<path id="Vector_26" d="M67.05 34.2101L62.05 33.7501V31.5601L70.4301 32.2601L62.05 42.6501V40.4101L67.05 34.2101Z" fill="#F2F2F2"/>
</g>
</g>
<defs>
<clipPath id="clip0_332_434">
<rect width="86.19" height="82.51" fill="white"/>
</clipPath>
</defs>
</svg>
