<svg width="151" height="27" viewBox="0 0 151 27" fill="none" xmlns="http://www.w3.org/2000/svg">
<g id="nokia" clip-path="url(#clip0_368_533)">
<g id="Group" opacity="0.9">
<path id="Vector" d="M8.44711 25.457H1.27185V1.11537H13.6813L27.9176 19.2878V1.11537H35.0932V25.457H22.9348L8.44689 6.9745L8.44711 25.457ZM69.4237 17.9304C69.4237 21.314 68.8242 22.4801 67.8308 23.5994C66.3082 25.2656 64.0943 25.7661 59.8262 25.7661H47.5752C43.307 25.7661 41.0902 25.265 39.5691 23.5994C38.5774 22.4819 37.9767 21.314 37.9767 17.9304V8.54706C37.9767 5.16412 38.5775 3.99841 39.5691 2.87813C41.0902 1.21059 43.3074 0.709961 47.5752 0.709961H59.8266C64.0933 0.709961 66.3092 1.21107 67.8308 2.87813C68.824 3.99817 69.4237 5.16364 69.4237 8.54706V17.9304ZM59.5247 19.598C61.1634 19.598 61.7405 19.5026 62.1338 19.146C62.5022 18.8124 62.6645 18.3836 62.6645 16.9535V9.52304C62.6645 8.09355 62.5022 7.667 62.1338 7.33205C61.7415 6.9745 61.1634 6.88001 59.5247 6.88001H47.8767C46.238 6.88001 45.6609 6.9745 45.269 7.33205C44.8997 7.66677 44.7384 8.0938 44.7384 9.52304V16.9528C44.7384 18.3823 44.8992 18.8118 45.269 19.1453C45.6604 19.5018 46.238 19.5973 47.8767 19.5973H59.5259L59.5247 19.598ZM79.8513 1.11537V25.457H72.3542V1.11537H79.8513ZM92.5179 1.11537H102.415L89.0576 12.5015L104.124 25.457H93.5319L79.8513 12.7622L92.5179 1.11537ZM105.507 1.11537H113.007V25.457H105.507V1.11537ZM141.593 25.457L139.375 21.2165H124.866L122.674 25.457H114.391L127.681 1.11537H137.001L150.291 25.457H141.593ZM127.47 15.9294H136.794L132.131 7.11683L127.47 15.9294Z" fill="white"/>
</g>
</g>
<defs>
<clipPath id="clip0_368_533">
<rect width="150" height="26" fill="white" transform="translate(0.333252 0.5)"/>
</clipPath>
</defs>
</svg>
